<?xml version="1.0" standalone="no"?><!DOCTYPE svg PUBLIC "-//W3C//DTD SVG 1.1//EN" "http://www.w3.org/Graphics/SVG/1.1/DTD/svg11.dtd"><svg class="icon" width="200px" height="200.00px" viewBox="0 0 1024 1024" version="1.1" xmlns="http://www.w3.org/2000/svg"><path d="M553.18518177 493.69547476m-117.14896151 0a117.14896149 117.14896149 0 1 0 234.29792304 0 117.14896149 117.14896149 0 1 0-234.29792304 0Z" fill="#7DD6EA" /><path d="M769.17857956 772.8394846H299.6675073c-32.94814542 0-60.40493329-27.45678784-60.40493329-60.40493328V242.92347905c0-32.94814542 27.45678784-60.40493329 60.40493329-60.40493327h469.51107226c32.94814542 0 60.40493329 27.45678784 60.40493325 60.40493327v469.51107227c0 32.94814542-26.54156159 60.40493329-60.40493325 60.40493328zM299.6675073 218.21236998c-13.72839391 0-24.71110907 10.98271516-24.71110906 24.71110907v469.51107227c0 13.72839391 10.98271516 24.71110907 24.71110906 24.71110905h469.51107226c13.72839391 0 24.71110907-10.98271516 24.71110906-24.71110905V242.92347905c0-13.72839391-10.98271516-24.71110907-24.71110906-24.71110907H299.6675073z" fill="#256782" /><path d="M534.88065653 641.04690289c-90.60739991 0-164.74072711-74.1333272-164.7407271-164.74072709s74.1333272-164.74072711 164.7407271-164.74072712 164.74072711 74.1333272 164.74072712 164.74072712-73.21810095 164.74072711-164.74072712 164.74072709z m0-294.70285627c-71.38764842 0-129.04690289 57.6592545-129.0469029 129.04690292s57.6592545 129.04690289 129.0469029 129.0469029 129.04690289-57.6592545 129.04690293-129.0469029-57.6592545-129.04690289-129.04690293-129.04690292z" fill="#256782" /><path d="M682.23208468 579.72674338c-2.74567878 0-6.40658382-0.91522626-9.15226261-2.74567879l-147.35142816-86.03126861c-5.49135757-2.74567878-9.15226261-9.15226261-9.15226261-15.55884644V306.98931737c0-10.06748889 8.23703635-17.38929897 17.38929897-17.38929896 10.06748889 0 17.38929897 8.23703635 17.38929897 17.38929896v158.33414329l138.19916553 80.539911c8.23703635 4.5761313 10.98271516 15.55884645 6.40658383 24.7111091-1.83045253 6.40658382-7.3218101 9.15226261-13.72839392 9.15226262z" fill="#256782" /><path d="M388.44445468 579.72674338c-6.40658382 0-11.8979414-2.74567878-15.55884645-9.15226262-4.5761313-8.23703635-1.83045253-19.21975149 6.40658383-24.7111091l147.35142811-86.03126859c8.23703635-4.5761313 19.21975149-1.83045253 24.71110907 6.40658385 4.5761313 8.23703635 1.83045253 19.21975149-6.40658382 24.71110906l-147.35142814 86.03126861c-3.66090506 1.83045253-6.40658382 2.74567878-9.1522626 2.74567879z" fill="#256782" /><path d="M864.36211077 868.93824208h-658.96290844c-34.77859794 0-62.2353858-28.37201411-62.23538579-62.23538582v-658.96290843c0-34.77859794 28.37201411-62.2353858 62.23538579-62.23538579h658.96290844c34.77859794 0 62.2353858 28.37201411 62.2353858 62.23538579v658.96290843c0 34.77859794-28.37201411 62.2353858-62.2353858 62.23538582z m-658.96290844-747.73985584c-14.64362017 0-26.54156159 11.8979414-26.5415616 26.54156159v658.96290843c0 14.64362017 11.8979414 26.54156159 26.5415616 26.5415616h658.96290844c14.64362017 0 26.54156159-11.8979414 26.54156157-26.5415616v-658.96290843c0-14.64362017-11.8979414-26.54156159-26.54156157-26.54156159h-658.96290844z" fill="#256782" /><path d="M387.52922842 938.49543796H252.07574167c-10.06748889 0-17.38929897-8.23703635-17.38929897-17.38929898v-67.72674336c0-10.06748889 8.23703635-17.38929897 17.38929897-17.38929899h136.36871301c10.06748889 0 17.38929897 8.23703635 17.38929895 17.38929899v67.72674336c0 9.15226261-8.23703635 17.38929897-18.30452521 17.38929898z m-118.06418777-35.6938242h100.67488878v-32.03291917h-100.67488878v32.03291917zM818.60079767 938.49543796h-136.36871299c-10.06748889 0-17.38929897-8.23703635-17.38929896-17.38929898v-67.72674336c0-10.06748889 8.23703635-17.38929897 17.38929896-17.38929899h136.36871299c10.06748889 0 17.38929897 8.23703635 17.38929896 17.38929899v67.72674336c0.91522626 9.15226261-7.3218101 17.38929897-17.38929896 17.38929898z m-118.06418774-35.6938242h100.67488876v-32.03291917h-100.67488876v32.03291917z" fill="#256782" /><path d="M864.36211077 868.93824208h-658.96290844c-34.77859794 0-62.2353858-28.37201411-62.23538579-62.23538582v-658.96290843c0-34.77859794 28.37201411-62.2353858 62.23538579-62.23538579h658.96290844c34.77859794 0 62.2353858 28.37201411 62.2353858 62.23538579v658.96290843c0 34.77859794-28.37201411 62.2353858-62.2353858 62.23538582z m-658.96290844-747.73985584c-14.64362017 0-26.54156159 11.8979414-26.5415616 26.54156159v658.96290843c0 14.64362017 11.8979414 26.54156159 26.5415616 26.5415616h658.96290844c14.64362017 0 26.54156159-11.8979414 26.54156157-26.5415616v-658.96290843c0-14.64362017-11.8979414-26.54156159-26.54156157-26.54156159h-658.96290844zM115.70702868 348.17449915c-10.06748889 0-17.38929897-8.23703635-17.38929896-17.38929897V217.29714374c0-10.06748889 8.23703635-17.38929897 17.38929896-17.38929898 10.06748889 0 17.38929897 8.23703635 17.38929898 17.38929898v113.48805644c0 9.15226261-7.3218101 17.38929897-17.38929898 17.38929897zM115.70702868 756.36541187c-10.06748889 0-17.38929897-8.23703635-17.38929896-17.38929898v-113.48805644c0-10.06748889 8.23703635-17.38929897 17.38929896-17.38929897 10.06748889 0 17.38929897 8.23703635 17.38929898 17.38929897v113.48805644c0 10.06748889-7.3218101 17.38929897-17.38929898 17.38929898z" fill="#256782" /><path d="M534.88065653 531.21975149c-30.20246662 0-54.91357571-24.71110907-54.91357569-54.91357569s24.71110907-54.91357571 54.91357569-54.91357571 54.91357571 24.71110907 54.91357573 54.91357571c0.91522626 30.20246662-23.79588279 54.91357571-54.91357573 54.91357569z m0-75.04855347c-10.98271516 0-19.21975149 9.15226261-19.21975147 20.13497778 0 10.98271516 9.15226261 20.13497775 19.21975147 20.13497775 10.98271516 0 20.13497775-9.15226261 20.13497776-20.13497775 0-10.98271516-9.15226261-20.13497775-20.13497776-20.13497778z" fill="#256782" /></svg>